<svg width="431" height="65" viewBox="0 0 431 65" fill="none" xmlns="http://www.w3.org/2000/svg">
<path fill-rule="evenodd" clip-rule="evenodd" d="M274.806 47.2304C255.57 36.13 252.567 37.0163 214.575 65C250.261 35.208 251.392 32.8626 237.236 17.7696C256.472 28.87 259.474 27.9837 297.467 0C261.78 29.792 260.65 32.1374 274.806 47.2304ZM418.842 47.0604C416.719 47.0604 415.086 46.6039 413.945 45.6908C412.803 44.7777 412.232 43.5244 412.232 41.9399V22.0577H401.068V17.9487H412.232V7.59135H418.226V17.9487H430.372V22.0577H418.226V41.2327C418.226 42.4233 418.956 43.0231 420.429 43.0231H428.706V47.0694H418.831L418.842 47.0604ZM71.1558 10.9574V44.1153H78.9758V10.9574H71.1558ZM152.369 43.4437V37.0788L163.865 33.6592L152.369 30.2396V23.8747L174.767 30.4186H174.824V36.9625H174.767L152.369 43.4705V43.4526V43.4437ZM142.745 14.8691L129.571 48.027H137.391L150.565 14.8691H142.745ZM22.4667 30.2129V23.8481L0.045665 30.383H0V36.9179H0.045665L22.4667 43.4617V37.0879L10.9708 33.6504L22.4667 30.2218V30.2129ZM62.9027 29.989C63.0283 27.4018 61.8638 24.8685 59.6377 22.9528L59.6491 22.9617C57.4116 21.1355 54.295 20.1418 51.0643 20.2493C47.6053 20.1329 44.249 21.1355 41.7603 23.0333V20.9386H33.9403V44.1241H41.7603V33.8562C41.7603 28.5208 44.2033 25.8621 49.1008 25.8621C50.7675 25.8084 52.3657 26.3545 53.4503 27.3482C54.5919 28.4582 55.1741 29.8726 55.0827 31.2959V44.1151H62.9027V29.989ZM114.115 44.1151H120.622L131.593 20.8848H123.237L117.083 34.823L110.736 20.8848H104.64L98.2927 34.7782L92.1395 20.8848H83.783L94.7424 44.1151H101.261L107.722 30.4634L114.115 44.1151ZM211.939 47.893C208.194 47.893 204.907 47.2663 202.064 46.0131C199.233 44.7598 197.03 43.0052 195.454 40.7404C193.89 38.4755 193.103 35.8616 193.103 32.8806V32.1644C193.103 29.1476 193.89 26.5068 195.454 24.242C197.018 21.9771 199.199 20.2225 201.984 18.9693C204.77 17.716 207.955 17.0894 211.551 17.0894C215.147 17.0894 218.126 17.6713 220.809 18.844C223.492 20.0167 225.592 21.6907 227.111 23.8749C228.629 26.0592 229.394 28.6195 229.394 31.5557V33.6952H199.096C199.244 36.8284 200.534 39.2812 202.966 41.0447C205.398 42.8083 208.434 43.6945 212.076 43.6945C215.261 43.6945 217.715 43.1216 219.439 41.9668C221.163 40.812 222.476 39.4424 223.389 37.8579L228.549 39.8183C227.784 41.0448 226.734 42.2801 225.398 43.5065C224.051 44.7329 222.316 45.7714 220.158 46.6039C218.001 47.4364 215.261 47.8572 211.916 47.8572L211.939 47.893ZM199.187 29.8548H223.332C223.127 27.1603 221.951 25.0566 219.805 23.5437C217.647 22.0398 214.907 21.2789 211.562 21.2789C208.217 21.2789 205.386 22.0309 203.206 23.5437C201.025 25.0566 199.69 27.1603 199.176 29.8548H199.187ZM285.286 17.949V58.9668L285.298 58.9757H291.291V42.4863H292.353C292.958 43.3635 293.814 44.214 294.933 45.0465C296.052 45.879 297.501 46.5594 299.305 47.0965C301.097 47.6336 303.289 47.9022 305.869 47.9022C309.112 47.9022 312.068 47.3024 314.717 46.1118C317.365 44.9212 319.489 43.1935 321.053 40.9286C322.617 38.6638 323.404 35.9871 323.404 32.8898V32.1199C323.404 28.9867 322.605 26.3012 321.007 24.0811C319.409 21.861 317.285 20.1422 314.625 18.9337C311.965 17.7252 309.043 17.1165 305.858 17.1165C302.011 17.1165 299.008 17.6894 296.862 18.8442C294.704 19.999 293.152 21.306 292.193 22.7741H291.131V17.949H285.286ZM313.644 40.8302C311.246 42.7638 308.118 43.7216 304.271 43.7216C300.481 43.7216 297.353 42.7548 294.899 40.8302C292.444 38.9055 291.211 36.2199 291.211 32.7645V32.2273C291.211 28.7719 292.444 26.0863 294.899 24.1616C297.353 22.237 300.424 21.2702 304.271 21.2702C308.118 21.2702 311.235 22.237 313.644 24.1616C316.052 26.0863 317.251 28.7719 317.251 32.2273V32.7645C317.251 36.2199 316.041 38.9055 313.644 40.8302ZM349.434 47.893C345.689 47.893 342.402 47.2663 339.559 46.0131C336.728 44.7598 334.525 43.0052 332.949 40.7404C331.385 38.4755 330.597 35.8616 330.597 32.8806V32.1644C330.597 29.1476 331.385 26.5068 332.949 24.242C334.513 21.9771 336.694 20.2225 339.479 18.9693C342.265 17.716 345.45 17.0894 349.046 17.0894C352.642 17.0894 355.621 17.6713 358.304 18.844C360.987 20.0167 363.087 21.6907 364.606 23.8749C366.124 26.0592 366.889 28.6195 366.889 31.5557V33.6952H336.591C336.739 36.8284 338.029 39.2812 340.461 41.0447C342.892 42.8083 345.929 43.6945 349.571 43.6945C352.756 43.6945 355.21 43.1216 356.934 41.9668C358.658 40.812 359.971 39.4424 360.884 37.8579L366.044 39.8183C365.279 41.0448 364.229 42.2801 362.893 43.5065C361.546 44.7329 359.811 45.7714 357.653 46.6039C355.496 47.4364 352.756 47.8572 349.411 47.8572L349.434 47.893ZM336.682 29.8548H360.827C360.621 27.1603 359.446 25.0566 357.299 23.5437C355.142 22.0398 352.402 21.2789 349.057 21.2789C345.712 21.2789 342.881 22.0309 340.701 23.5437C338.52 25.0566 337.184 27.1603 336.671 29.8548H336.682ZM375.724 17.949V47.0607H381.717V29.3179C381.717 26.8561 382.539 25.0389 384.183 23.8662C385.827 22.6935 387.996 22.1116 390.679 22.1116H395.462V17.8236H391.056C388.829 17.8236 387.037 18.1191 385.667 18.7188C384.297 19.3186 383.293 20.2496 382.63 21.5208H381.569V17.949H375.724Z" fill="url(#paint0_linear_116_285)"/>
<defs>
<linearGradient id="paint0_linear_116_285" x1="419.639" y1="30.4455" x2="-3.01967" y2="31.459" gradientUnits="userSpaceOnUse">
<stop stop-color="#859398"/>
<stop offset="0.39918" stop-color="#D1F593"/>
<stop offset="1" stop-color="#859398"/>
</linearGradient>
</defs>
</svg>
